<svg xmlns="http://www.w3.org/2000/svg" width="299" height="289" viewBox="0 0 299 289" fill="none"><g clip-path="url(#clip0_359_223)"><path fill-rule="evenodd" clip-rule="evenodd" d="M17.7314 85.6291L124.118 8.27053C139.177 -2.67644 159.823 -2.67644 174.883 8.27053L243.331 58.0426C240.467 61.7753 238.764 66.4486 238.764 71.5203C238.764 83.7463 248.66 93.6575 260.867 93.6575C268.432 93.6575 275.109 89.8514 279.094 84.0471L281.269 85.6291C296.329 96.5761 302.644 116.037 296.814 133.796L256.494 259.078C250.665 276.836 234.148 288.756 215.446 288.756H83.7981C65.0954 288.756 48.5787 276.836 42.7493 259.078L2.18635 133.796C-3.64306 116.037 2.67213 96.5761 17.7314 85.6291Z" fill="#1D2849"></path><path fill-rule="evenodd" clip-rule="evenodd" d="M208.644 92.4412C197.471 92.4412 188.97 96.5767 183.141 104.604C177.399 112.512 174.485 123.015 174.398 136.115C169.126 127.146 159.263 121.306 149.621 121.633H149.135L169.052 93.9006H148.164L126.789 123.579C121.802 130.447 119.126 134.288 117.24 138.911C116.398 137.348 115.373 135.885 114.159 134.526C110.03 129.904 105.172 126.741 99.3426 125.282L118.531 98.2793V93.6573H62.9088V109.713H91.8129L73.8389 135.012V139.635H84.7691C96.4279 139.635 102.5 144.013 102.5 152.041C102.5 160.312 96.185 165.421 87.4409 165.421C79.4254 165.421 74.0818 161.285 68.7382 153.501L56.3507 162.258C62.1801 174.178 73.3531 181.963 87.6838 181.963C101.154 181.963 112.715 174.994 117.662 164.027C122.806 174.89 134.374 182.141 146.463 181.963C161.192 181.963 174.281 172.105 177.518 157.924C182.329 172.484 192.705 182.206 208.644 182.206C231.476 182.206 242.892 162.258 242.892 136.716C242.892 123.336 239.977 112.632 234.148 104.604C228.319 96.5767 219.817 92.4412 208.644 92.4412ZM192.613 136.716C192.613 118.227 197.471 108.74 208.644 108.74C219.574 108.74 224.675 118.227 224.675 136.716C224.675 155.934 219.332 165.664 208.644 165.664C197.957 165.664 192.613 155.934 192.613 136.716ZM146.463 136.472C138.448 136.472 132.133 142.797 132.133 151.068C132.133 159.339 138.448 165.664 146.463 165.664C154.479 165.664 160.794 159.339 160.794 151.068C160.794 142.797 154.479 136.472 146.463 136.472Z" fill="white"></path><path d="M260.866 83.4402C267.44 83.4402 272.768 78.1034 272.768 71.5201C272.768 64.9369 267.44 59.6001 260.866 59.6001C254.293 59.6001 248.965 64.9369 248.965 71.5201C248.965 78.1034 254.293 83.4402 260.866 83.4402Z" fill="#00A7E7"></path><path d="M66.0669 232.319C67.7672 234.752 69.7103 236.211 72.625 236.211C75.0539 236.211 76.5113 234.995 76.5113 233.292C76.5113 231.589 75.5397 231.103 73.1108 229.886L70.1961 228.67C66.0669 226.724 63.638 224.534 63.638 220.885C63.638 216.263 67.5243 213.344 72.625 213.344C76.7542 213.344 79.9118 215.29 81.612 218.453L77.7258 221.372C76.2684 219.183 74.5682 218.21 72.625 218.21C70.6819 218.21 69.2245 219.183 69.2245 220.885C69.2245 222.345 70.1961 223.075 72.3821 224.048L75.5397 225.508C80.1547 227.454 82.0978 229.886 82.0978 233.535C82.0978 238.401 77.9686 241.563 72.625 241.563C68.0101 241.563 64.3667 239.13 62.1807 235.481L66.0669 232.319Z" fill="#00A7E7"></path><path d="M97.1574 220.156C101.044 220.156 104.201 222.102 105.901 225.265L102.015 228.184C100.801 226.238 99.3434 225.265 97.1574 225.265C93.9998 225.265 91.8137 227.697 91.8137 230.86C91.8137 234.022 93.9998 236.455 97.1574 236.455C99.3434 236.455 100.801 235.482 102.015 233.536L105.901 236.455C104.201 239.617 101.044 241.563 97.1574 241.563C91.328 241.563 86.2272 236.698 86.2272 230.86C86.4701 224.778 91.328 220.156 97.1574 220.156Z" fill="#00A7E7"></path><path d="M120.475 220.156C126.304 220.156 131.405 225.021 131.405 230.616C131.648 236.455 126.304 241.32 120.475 241.32C114.646 241.563 109.545 236.455 109.788 230.616C109.545 224.778 114.646 219.913 120.475 220.156ZM120.475 225.021C117.317 225.021 115.131 227.454 115.131 230.616C115.131 233.779 117.317 236.212 120.475 236.212C123.39 236.212 125.819 233.779 125.819 230.616C125.819 227.454 123.39 225.021 120.475 225.021Z" fill="#00A7E7"></path><path d="M136.506 220.399H142.092V232.319C142.092 234.752 143.792 236.211 145.978 236.211C148.164 236.211 149.622 234.752 149.622 232.319V220.399H155.208V231.832C155.208 237.428 151.079 241.32 145.978 241.32C140.635 241.32 136.506 237.671 136.506 231.832V220.399Z" fill="#00A7E7"></path><path d="M174.396 240.833C173.182 241.077 171.724 241.32 170.51 241.32C165.409 241.32 162.494 238.887 162.494 233.779V225.264H159.337V220.642H162.494V215.534H168.081V220.642H173.91V225.264H168.081V233.292C168.081 235.482 169.295 236.455 171.724 236.455C171.967 236.455 172.939 236.455 174.396 236.211V240.833Z" fill="#00A7E7"></path><path d="M182.169 209.695C184.112 209.695 185.813 211.155 185.813 213.101C185.813 215.047 184.112 216.507 182.169 216.507C180.226 216.507 178.769 215.047 178.769 213.101C178.769 211.155 180.226 209.695 182.169 209.695ZM179.497 220.399H185.084V240.833H179.497V220.399Z" fill="#00A7E7"></path><path d="M210.102 240.833H204.515V228.913C204.515 226.481 203.058 225.021 200.872 225.021C198.686 225.021 196.986 226.724 196.986 228.913V240.833H191.399V220.642H196.743V222.588C198.2 221.129 200.143 220.399 202.572 220.399C207.187 220.399 210.102 223.561 210.102 228.67V240.833Z" fill="#00A7E7"></path><path d="M236.821 220.399V238.401C236.821 244.969 232.691 248.618 226.376 248.618C222.49 248.618 219.332 247.402 216.418 244.969L219.332 241.077C221.518 242.78 223.461 243.753 225.89 243.753C229.048 243.753 231.234 242.05 231.234 238.887V237.671C229.777 239.374 227.591 240.104 225.162 240.104C219.575 240.104 215.446 235.968 215.446 230.13C215.446 224.048 219.575 220.156 225.162 220.156C228.076 220.156 230.262 221.129 231.72 223.075V220.643H236.821V220.399ZM226.376 224.778C223.461 224.778 221.033 226.724 221.033 230.13C221.033 233.536 223.219 235.482 226.376 235.482C229.048 235.482 231.477 233.536 231.477 229.887C231.477 226.481 229.048 224.778 226.376 224.778Z" fill="#00A7E7"></path></g><defs><clipPath id="clip0_359_223"><rect width="299" height="289" fill="white"></rect></clipPath></defs></svg>